<mxfile host="Electron" modified="2023-11-03T16:43:33.886Z" agent="Mozilla/5.0 (Macintosh; Intel Mac OS X 10_15_7) AppleWebKit/537.36 (KHTML, like Gecko) draw.io/22.0.3 Chrome/114.0.5735.289 Electron/25.8.4 Safari/537.36" etag="Zv75w4eGaoOyeRJJk0u7" version="22.0.3" type="device">
  <diagram name="Pagina-1" id="IJHAGChhtPfzdSmJM34t">
    <mxGraphModel dx="1528" dy="1280" grid="1" gridSize="10" guides="1" tooltips="1" connect="1" arrows="1" fold="1" page="1" pageScale="1" pageWidth="1169" pageHeight="827" math="0" shadow="0">
      <root>
        <mxCell id="0" />
        <mxCell id="1" parent="0" />
        <mxCell id="HcpYDMN-OL8fTOyeLxJK-1" value=":HomeCliente" style="shape=umlLifeline;perimeter=lifelinePerimeter;whiteSpace=wrap;html=1;container=1;dropTarget=0;collapsible=0;recursiveResize=0;outlineConnect=0;portConstraint=eastwest;newEdgeStyle={&quot;curved&quot;:0,&quot;rounded&quot;:0};fillColor=#E0360B;strokeColor=#000000;fontColor=#FFFFFF;" parent="1" vertex="1">
          <mxGeometry x="190" y="173" width="120" height="520" as="geometry" />
        </mxCell>
        <mxCell id="HcpYDMN-OL8fTOyeLxJK-6" value="" style="shape=umlLifeline;perimeter=lifelinePerimeter;whiteSpace=wrap;html=1;container=1;dropTarget=0;collapsible=0;recursiveResize=0;outlineConnect=0;portConstraint=eastwest;newEdgeStyle={&quot;curved&quot;:0,&quot;rounded&quot;:0};participant=umlActor;" parent="1" vertex="1">
          <mxGeometry x="80" y="133" width="20" height="560" as="geometry" />
        </mxCell>
        <mxCell id="HcpYDMN-OL8fTOyeLxJK-7" value="Cliente" style="text;strokeColor=none;align=center;fillColor=none;html=1;verticalAlign=middle;whiteSpace=wrap;rounded=0;" parent="1" vertex="1">
          <mxGeometry x="60" y="173" width="60" height="30" as="geometry" />
        </mxCell>
        <mxCell id="HcpYDMN-OL8fTOyeLxJK-8" value="show" style="html=1;verticalAlign=bottom;endArrow=open;curved=0;rounded=0;endFill=0;" parent="1" edge="1" target="HcpYDMN-OL8fTOyeLxJK-1">
          <mxGeometry width="80" relative="1" as="geometry">
            <mxPoint x="90" y="253" as="sourcePoint" />
            <mxPoint x="230" y="253" as="targetPoint" />
            <mxPoint x="-1" as="offset" />
          </mxGeometry>
        </mxCell>
        <mxCell id="HcpYDMN-OL8fTOyeLxJK-13" value=":View RicercaProdotti" style="shape=umlLifeline;perimeter=lifelinePerimeter;whiteSpace=wrap;html=1;container=1;dropTarget=0;collapsible=0;recursiveResize=0;outlineConnect=0;portConstraint=eastwest;newEdgeStyle={&quot;curved&quot;:0,&quot;rounded&quot;:0};fillColor=#E0360B;strokeColor=#000000;fontColor=#FFFFFF;" parent="1" vertex="1">
          <mxGeometry x="340" y="173" width="140" height="520" as="geometry" />
        </mxCell>
        <mxCell id="HcpYDMN-OL8fTOyeLxJK-14" value=":ViewNoleggio" style="shape=umlLifeline;perimeter=lifelinePerimeter;whiteSpace=wrap;html=1;container=1;dropTarget=0;collapsible=0;recursiveResize=0;outlineConnect=0;portConstraint=eastwest;newEdgeStyle={&quot;curved&quot;:0,&quot;rounded&quot;:0};fillColor=#E0360B;strokeColor=#000000;fontColor=#FFFFFF;" parent="1" vertex="1">
          <mxGeometry x="990" y="173" width="120" height="520" as="geometry" />
        </mxCell>
        <mxCell id="HcpYDMN-OL8fTOyeLxJK-15" value=":GestioneCliente&lt;br&gt;Controller" style="shape=umlLifeline;perimeter=lifelinePerimeter;whiteSpace=wrap;html=1;container=1;dropTarget=0;collapsible=0;recursiveResize=0;outlineConnect=0;portConstraint=eastwest;newEdgeStyle={&quot;curved&quot;:0,&quot;rounded&quot;:0};fillColor=#82b366;strokeColor=#000000;fontColor=#FFFFFF;" parent="1" vertex="1">
          <mxGeometry x="510" y="173" width="132" height="520" as="geometry" />
        </mxCell>
        <mxCell id="MFrY4MJzx_DSIPrQa5h5-2" value="" style="html=1;points=[[0,0,0,0,5],[0,1,0,0,-5],[1,0,0,0,5],[1,1,0,0,-5]];perimeter=orthogonalPerimeter;outlineConnect=0;targetShapes=umlLifeline;portConstraint=eastwest;newEdgeStyle={&quot;curved&quot;:0,&quot;rounded&quot;:0};" parent="HcpYDMN-OL8fTOyeLxJK-15" vertex="1">
          <mxGeometry x="61" y="140" width="10" height="74" as="geometry" />
        </mxCell>
        <mxCell id="MFrY4MJzx_DSIPrQa5h5-11" value="" style="html=1;points=[[0,0,0,0,5],[0,1,0,0,-5],[1,0,0,0,5],[1,1,0,0,-5]];perimeter=orthogonalPerimeter;outlineConnect=0;targetShapes=umlLifeline;portConstraint=eastwest;newEdgeStyle={&quot;curved&quot;:0,&quot;rounded&quot;:0};" parent="HcpYDMN-OL8fTOyeLxJK-15" vertex="1">
          <mxGeometry x="61" y="360" width="10" height="100" as="geometry" />
        </mxCell>
        <mxCell id="MFrY4MJzx_DSIPrQa5h5-12" value="loop" style="shape=umlFrame;whiteSpace=wrap;html=1;pointerEvents=0;" parent="HcpYDMN-OL8fTOyeLxJK-15" vertex="1">
          <mxGeometry x="-138" y="240" width="270" height="110" as="geometry" />
        </mxCell>
        <mxCell id="MFrY4MJzx_DSIPrQa5h5-13" value="[ more items ]" style="text;html=1;align=center;verticalAlign=middle;resizable=0;points=[];autosize=1;strokeColor=none;fillColor=none;" parent="HcpYDMN-OL8fTOyeLxJK-15" vertex="1">
          <mxGeometry x="-83" y="240" width="100" height="30" as="geometry" />
        </mxCell>
        <mxCell id="HcpYDMN-OL8fTOyeLxJK-17" value="aggiungiAlCarrello()" style="html=1;verticalAlign=bottom;endArrow=block;curved=0;rounded=0;" parent="HcpYDMN-OL8fTOyeLxJK-15" edge="1" target="MFrY4MJzx_DSIPrQa5h5-4">
          <mxGeometry width="80" relative="1" as="geometry">
            <mxPoint x="-98.36956521739125" y="286.81999999999994" as="sourcePoint" />
            <mxPoint x="107" y="286.81999999999994" as="targetPoint" />
          </mxGeometry>
        </mxCell>
        <mxCell id="MFrY4MJzx_DSIPrQa5h5-4" value="" style="html=1;points=[[0,0,0,0,5],[0,1,0,0,-5],[1,0,0,0,5],[1,1,0,0,-5]];perimeter=orthogonalPerimeter;outlineConnect=0;targetShapes=umlLifeline;portConstraint=eastwest;newEdgeStyle={&quot;curved&quot;:0,&quot;rounded&quot;:0};" parent="HcpYDMN-OL8fTOyeLxJK-15" vertex="1">
          <mxGeometry x="61" y="270" width="10" height="70" as="geometry" />
        </mxCell>
        <mxCell id="MFrY4MJzx_DSIPrQa5h5-5" value="" style="html=1;verticalAlign=bottom;endArrow=none;curved=0;rounded=0;startArrow=open;startFill=0;endFill=0;dashed=1;dashPattern=8 8;" parent="HcpYDMN-OL8fTOyeLxJK-15" edge="1">
          <mxGeometry width="80" relative="1" as="geometry">
            <mxPoint x="-97.89999999999998" y="330" as="sourcePoint" />
            <mxPoint x="60" y="330" as="targetPoint" />
          </mxGeometry>
        </mxCell>
        <mxCell id="MFrY4MJzx_DSIPrQa5h5-6" value="ok" style="edgeLabel;html=1;align=center;verticalAlign=middle;resizable=0;points=[];" parent="MFrY4MJzx_DSIPrQa5h5-5" vertex="1" connectable="0">
          <mxGeometry x="-0.1367" y="2" relative="1" as="geometry">
            <mxPoint x="13" y="-8" as="offset" />
          </mxGeometry>
        </mxCell>
        <mxCell id="HcpYDMN-OL8fTOyeLxJK-19" value="concludiOrdine()" style="html=1;verticalAlign=bottom;endArrow=block;rounded=0;" parent="1" edge="1">
          <mxGeometry width="80" relative="1" as="geometry">
            <mxPoint x="409.99571428571426" y="553" as="sourcePoint" />
            <mxPoint x="570.85" y="553" as="targetPoint" />
          </mxGeometry>
        </mxCell>
        <mxCell id="HcpYDMN-OL8fTOyeLxJK-20" value=":Ordini" style="shape=umlLifeline;perimeter=lifelinePerimeter;whiteSpace=wrap;html=1;container=1;dropTarget=0;collapsible=0;recursiveResize=0;outlineConnect=0;portConstraint=eastwest;newEdgeStyle={&quot;curved&quot;:0,&quot;rounded&quot;:0};fillColor=#B3BECF;strokeColor=#000000;fontColor=#FFFFFF;" parent="1" vertex="1">
          <mxGeometry x="840" y="173" width="102" height="520" as="geometry" />
        </mxCell>
        <mxCell id="HcpYDMN-OL8fTOyeLxJK-21" value="create" style="html=1;verticalAlign=bottom;endArrow=block;curved=0;rounded=0;" parent="1" target="HcpYDMN-OL8fTOyeLxJK-20" edge="1">
          <mxGeometry width="80" relative="1" as="geometry">
            <mxPoint x="580.0004347826087" y="563" as="sourcePoint" />
            <mxPoint x="847.9999999999998" y="563" as="targetPoint" />
          </mxGeometry>
        </mxCell>
        <mxCell id="MFrY4MJzx_DSIPrQa5h5-1" value="show" style="html=1;verticalAlign=bottom;endArrow=open;curved=0;rounded=0;endFill=0;" parent="1" target="HcpYDMN-OL8fTOyeLxJK-13" edge="1">
          <mxGeometry width="80" relative="1" as="geometry">
            <mxPoint x="250" y="293" as="sourcePoint" />
            <mxPoint x="407.4999999999998" y="293" as="targetPoint" />
            <mxPoint x="-1" as="offset" />
          </mxGeometry>
        </mxCell>
        <mxCell id="HcpYDMN-OL8fTOyeLxJK-4" value="cerca()" style="html=1;verticalAlign=bottom;endArrow=block;curved=0;rounded=0;" parent="1" edge="1">
          <mxGeometry width="80" relative="1" as="geometry">
            <mxPoint x="412" y="333" as="sourcePoint" />
            <mxPoint x="569.5" y="333" as="targetPoint" />
          </mxGeometry>
        </mxCell>
        <mxCell id="MFrY4MJzx_DSIPrQa5h5-3" value="prodottiDisponibili" style="html=1;verticalAlign=bottom;endArrow=none;curved=0;rounded=0;startArrow=open;startFill=0;endFill=0;dashed=1;dashPattern=8 8;" parent="1" edge="1">
          <mxGeometry width="80" relative="1" as="geometry">
            <mxPoint x="410.1296296296297" y="373" as="sourcePoint" />
            <mxPoint x="575.5" y="373" as="targetPoint" />
          </mxGeometry>
        </mxCell>
        <mxCell id="MFrY4MJzx_DSIPrQa5h5-7" value="show" style="html=1;verticalAlign=bottom;endArrow=open;curved=0;rounded=0;endFill=0;dashed=1;dashPattern=8 8;" parent="1" edge="1">
          <mxGeometry width="80" relative="1" as="geometry">
            <mxPoint x="580.0048837209301" y="622.9999999999999" as="sourcePoint" />
            <mxPoint x="1049" y="623" as="targetPoint" />
            <mxPoint x="-1" as="offset" />
          </mxGeometry>
        </mxCell>
        <mxCell id="1TsbcWP5gj7dL5TXMpsC-1" value=":Prodotti" style="shape=umlLifeline;perimeter=lifelinePerimeter;whiteSpace=wrap;html=1;container=1;dropTarget=0;collapsible=0;recursiveResize=0;outlineConnect=0;portConstraint=eastwest;newEdgeStyle={&quot;curved&quot;:0,&quot;rounded&quot;:0};fillColor=#B3BECF;strokeColor=#000000;fontColor=#FFFFFF;" parent="1" vertex="1">
          <mxGeometry x="680" y="173" width="100" height="520" as="geometry" />
        </mxCell>
        <mxCell id="1TsbcWP5gj7dL5TXMpsC-2" value="scegli()" style="html=1;verticalAlign=bottom;endArrow=block;curved=0;rounded=0;" parent="1" edge="1">
          <mxGeometry width="80" relative="1" as="geometry">
            <mxPoint x="580" y="343" as="sourcePoint" />
            <mxPoint x="729.5" y="343.0000000000001" as="targetPoint" />
          </mxGeometry>
        </mxCell>
        <mxCell id="1TsbcWP5gj7dL5TXMpsC-3" value="prodottiDisponibili" style="html=1;verticalAlign=bottom;endArrow=none;curved=0;rounded=0;startArrow=open;startFill=0;endFill=0;dashed=1;dashPattern=8 8;" parent="1" edge="1">
          <mxGeometry width="80" relative="1" as="geometry">
            <mxPoint x="580" y="363" as="sourcePoint" />
            <mxPoint x="730" y="363" as="targetPoint" />
          </mxGeometry>
        </mxCell>
        <mxCell id="1TsbcWP5gj7dL5TXMpsC-4" value="" style="html=1;verticalAlign=bottom;endArrow=none;curved=0;rounded=0;startArrow=open;startFill=0;endFill=0;dashed=1;dashPattern=8 8;" parent="1" edge="1">
          <mxGeometry width="80" relative="1" as="geometry">
            <mxPoint x="581" y="593" as="sourcePoint" />
            <mxPoint x="890.4999999999998" y="593" as="targetPoint" />
            <Array as="points">
              <mxPoint x="832" y="593" />
            </Array>
          </mxGeometry>
        </mxCell>
        <mxCell id="1TsbcWP5gj7dL5TXMpsC-5" value="ok" style="edgeLabel;html=1;align=center;verticalAlign=middle;resizable=0;points=[];" parent="1TsbcWP5gj7dL5TXMpsC-4" vertex="1" connectable="0">
          <mxGeometry x="-0.1367" y="2" relative="1" as="geometry">
            <mxPoint x="13" y="-8" as="offset" />
          </mxGeometry>
        </mxCell>
      </root>
    </mxGraphModel>
  </diagram>
</mxfile>
